<svg width="1200" height="675" viewBox="0 0 1200 675" fill="none" xmlns="http://www.w3.org/2000/svg">
  <defs>
    <linearGradient id="bg" x1="0" y1="0" x2="1200" y2="675" gradientUnits="userSpaceOnUse">
      <stop stop-color="#0F172A" stop-opacity="0.92"/>
      <stop offset="1" stop-color="#0EA5E9" stop-opacity="0.22"/>
    </linearGradient>
    <linearGradient id="card" x1="0" y1="0" x2="520" y2="220" gradientUnits="userSpaceOnUse">
      <stop stop-color="#FFFFFF" stop-opacity="0.18"/>
      <stop offset="1" stop-color="#FFFFFF" stop-opacity="0.06"/>
    </linearGradient>
    <filter id="shadow" x="0" y="0" width="1200" height="675" filterUnits="userSpaceOnUse" color-interpolation-filters="sRGB">
      <feDropShadow dx="0" dy="10" stdDeviation="18" flood-color="#000000" flood-opacity="0.25"/>
    </filter>
  </defs>

  <rect width="1200" height="675" rx="56" fill="url(#bg)"/>

  <g filter="url(#shadow)">
    <rect x="90" y="96" width="520" height="220" rx="36" fill="url(#card)" stroke="#FFFFFF" stroke-opacity="0.10"/>
    <rect x="130" y="142" width="310" height="18" rx="9" fill="#FFFFFF" fill-opacity="0.70"/>
    <rect x="130" y="180" width="420" height="12" rx="6" fill="#FFFFFF" fill-opacity="0.35"/>
    <rect x="130" y="206" width="380" height="12" rx="6" fill="#FFFFFF" fill-opacity="0.28"/>
    <rect x="130" y="232" width="260" height="12" rx="6" fill="#FFFFFF" fill-opacity="0.22"/>
  </g>

  <g opacity="0.92">
    <circle cx="980" cy="338" r="92" fill="#0EA5E9" fill-opacity="0.28"/>
    <circle cx="980" cy="338" r="70" fill="#0EA5E9" fill-opacity="0.20"/>
    <path d="M965 305C965 298.372 972.163 294.258 977.83 297.636L1025.83 326.636C1031.28 329.904 1031.28 337.096 1025.83 340.364L977.83 369.364C972.163 372.742 965 368.628 965 362V305Z" fill="#E0F2FE" fill-opacity="0.95"/>
  </g>

  <text x="90" y="560" fill="#E2E8F0" font-family="ui-sans-serif, system-ui, -apple-system, Segoe UI, Roboto, Helvetica, Arial" font-size="22" font-weight="600" letter-spacing="0.14em">
    STAFFSYNC SOP
  </text>
  <text x="90" y="602" fill="#CBD5E1" font-family="ui-sans-serif, system-ui, -apple-system, Segoe UI, Roboto, Helvetica, Arial" font-size="18" font-weight="500">
    Video guide preview
  </text>
</svg>
